Coordinates
version=1
nRows=14
nColumns=40
inDegrees=yes

Units are S.I. units (second, meters, Newtons, ...)
Angles are in degrees.

endheader
time	pelvis_tilt	pelvis_list	pelvis_rotation	pelvis_tx	pelvis_ty	pelvis_tz	hip_flexion_r	hip_adduction_r	hip_rotation_r	knee_angle_r	knee_angle_r_beta	ankle_angle_r	subtalar_angle_r	mtp_angle_r	hip_flexion_l	hip_adduction_l	hip_rotation_l	knee_angle_l	knee_angle_l_beta	ankle_angle_l	subtalar_angle_l	mtp_angle_l	lumbar_extension	lumbar_bending	lumbar_rotation	arm_flex_r	arm_add_r	arm_rot_r	elbow_flex_r	pro_sup_r	wrist_flex_r	wrist_dev_r	arm_flex_l	arm_add_l	arm_rot_l	elbow_flex_l	pro_sup_l	wrist_flex_l	wrist_dev_l
     31.97000000	     -5.30840993	     -5.75503258	      1.90448224	      0.99131734	      0.91132561	      0.53938057	     19.16506364	      6.31540948	     -8.75741504	     29.54431570	     29.54431570	     16.28380827	    -11.35582395	      1.00665202	     16.41713895	    -16.96306845	      0.89742411	     53.64227249	     53.64227249	      8.28311298	    -17.73442230	      1.67495958	    -11.14370845	      4.86833505	      0.35416749	     14.11378992	    -17.80690656	     -8.33039916	     37.76473656	     45.68824192	      0.00000000	      0.00000000	      8.98652418	     -9.56882668	     -1.35587795	     32.73366815	     45.75331021	      0.00000000	      0.00000000
     31.99292857	     -4.79505528	     -5.81691217	      2.70169041	      0.99068235	      0.90891363	      0.54135045	     19.05539793	      6.51629218	     -8.80938120	     30.82190947	     30.82190947	     17.02887820	    -12.61152313	      0.82027268	     19.10213577	    -16.96762503	      2.14853632	     57.54334413	     57.54334413	      7.53646578	    -18.57913818	      2.03768211	    -11.51277081	      4.90178898	      1.41210525	     17.11353155	    -18.42267813	     -8.48837869	     38.60694352	     45.68766105	      0.00000000	      0.00000000	      6.96677559	     -8.72382079	     -1.00755973	     31.38267954	     45.67913802	      0.00000000	      0.00000000
     32.01585714	     -4.53675323	     -5.64564624	      3.64248831	      0.98981969	      0.90641827	      0.54298336	     19.21257846	      6.51763461	     -8.64278512	     32.10951468	     32.10951468	     18.10095195	    -14.23936673	      1.98875547	     22.34139564	    -16.17718732	      3.92205216	     61.55885149	     61.55885149	     10.07612686	    -18.75527850	     11.63086409	    -11.53105799	      4.65427328	      1.03316562	     21.68835788	    -18.00315156	     -8.23158339	     37.63453817	     45.75733883	      0.00000000	      0.00000000	      4.28546718	     -8.66489891	      1.04155582	     29.03623674	     45.39823847	      0.00000000	      0.00000000
     32.03878571	     -4.05937131	     -5.57890102	      4.61596316	      0.98923397	      0.90446504	      0.54457257	     18.94122862	      6.60524242	     -8.76601909	     33.08033592	     33.08033592	     19.02182691	    -15.35475662	      2.65438066	     24.93729198	    -15.69219605	      5.14748225	     64.33386108	     64.33386108	     11.00923842	    -19.10919749	     15.97168610	    -11.84977772	      4.56056160	      1.26903390	     25.37838429	    -18.16332425	     -8.18821149	     38.40249045	     45.76081314	      0.00000000	      0.00000000	      1.26227630	     -8.56948988	      2.69467002	     28.77143293	     45.15150133	      0.00000000	      0.00000000
     32.06171429	     -3.44323942	     -5.47387249	      5.60178639	      0.98883330	      0.90329477	      0.54587778	     18.28390252	      6.61942856	     -9.10117780	     33.64114600	     33.64114600	     19.62085449	    -16.08910564	      2.55574592	     26.94529661	    -15.33548697	      5.84946508	     65.84530179	     65.84530179	     10.87423941	    -19.37022035	     16.14865285	    -12.33828440	      4.48789518	      2.52855720	     28.36608119	    -19.28651886	     -8.41760273	     39.49671805	     45.75379740	      0.00000000	      0.00000000	     -0.89511196	     -8.09597929	      2.90729808	     27.95701645	     45.08733204	      0.00000000	      0.00000000
     32.08464286	     -3.17923138	     -5.38869641	      6.71445793	      0.98804131	      0.90221050	      0.54675471	     18.03160000	      6.62891170	     -9.44107660	     34.19110587	     34.19110587	     20.51098636	    -16.89479032	      3.95759101	     29.38997604	    -14.61791628	      6.80520165	     66.82947907	     66.82947907	     12.76032035	    -19.45790730	     21.44145938	    -12.40051759	      4.39861599	      2.06314795	     32.49118389	    -18.90343481	     -8.15962150	     40.06215121	     45.75338643	      0.00000000	      0.00000000	     -3.98104735	     -8.28214768	      5.19265823	     27.72958645	     44.71156032	      0.00000000	      0.00000000
     32.10757143	     -2.88051940	     -5.23079754	      7.84195793	      0.98739796	      0.90211489	      0.54719738	     17.42928546	      6.50985169	     -9.97809457	     34.18781925	     34.18781925	     20.94792249	    -17.36888997	      4.28479039	     31.19043774	    -13.96349452	      7.22969862	     66.32564737	     66.32564737	     13.24744282	    -19.54120794	     21.79924303	    -12.52843639	      4.27642682	      2.38029876	     35.76855746	    -19.31005153	     -8.26200859	     41.41590045	     45.73097143	      0.00000000	      0.00000000	     -6.28566566	     -8.12316416	      5.95120522	     27.01584859	     44.56664057	      0.00000000	      0.00000000
     32.13050000	     -2.68249657	     -4.98391787	      8.97477111	      0.98663918	      0.90287547	      0.54713960	     16.74451137	      6.25908347	    -10.58919243	     33.86324231	     33.86324231	     21.29184443	    -17.62350140	      4.83206805	     32.66282035	    -13.08997367	      7.46621563	     64.71864683	     64.71864683	     13.90963119	    -19.57469434	     22.34478978	    -12.59198414	      4.07254945	      2.64453985	     38.99666648	    -19.71835248	     -8.26496052	     42.58999147	     45.71034721	      0.00000000	      0.00000000	     -8.48972544	     -8.05397847	      6.97335524	     26.71883359	     44.37699925	      0.00000000	      0.00000000
     32.15342857	     -2.61969629	     -4.67665817	     10.11498480	      0.98570462	      0.90420589	      0.54650486	     16.07408172	      5.90494922	    -11.20956796	     33.32211531	     33.32211531	     21.77583751	    -17.64634400	      6.09021080	     33.80185066	    -11.99915607	      7.62846117	     62.08015293	     62.08015293	     14.35780509	    -19.56875701	     22.17913480	    -12.51124835	      3.83762208	      2.83585404	     42.51147780	    -20.26134127	     -7.43315333	     42.92624730	     45.69425045	      0.00000000	      0.00000000	    -11.43281814	     -8.98518094	     12.60318584	     29.13575893	     43.54552609	      0.00000000	      0.00000000
     32.17635714	     -2.69708512	     -4.25897037	     11.19763740	      0.98457302	      0.90633116	      0.54545771	     15.33388118	      5.37209176	    -11.96452990	     32.39275948	     32.39275948	     21.64287068	    -17.63930601	      6.26553945	     34.50565188	    -10.70656286	      7.65768608	     58.35661615	     58.35661615	     14.49195119	    -19.52050497	     21.99248122	    -12.40699993	      3.43925423	      3.22410023	     45.38266105	    -20.87161420	     -7.60165899	     44.38446823	     45.66767583	      0.00000000	      0.00000000	    -12.96158731	     -8.77634494	     13.01769987	     28.52810292	     43.48051696	      0.00000000	      0.00000000
     32.19928571	     -3.10316194	     -3.87978990	     12.25418629	      0.98314441	      0.90839048	      0.54397056	     14.88092058	      4.80696082	    -12.69742108	     31.31875348	     31.31875348	     21.43563834	    -17.60648436	      6.49880366	     35.15569878	     -9.23365137	      7.88663592	     53.94407834	     53.94407834	     14.37617447	    -19.40859857	     21.89151342	    -11.92695381	      3.04845277	      3.70784405	     48.22977513	    -21.64177374	     -7.73654002	     45.66416686	     45.64563795	      0.00000000	      0.00000000	    -14.37023622	     -8.46661305	     13.27766483	     28.17772333	     43.42798418	      0.00000000	      0.00000000
     32.22221429	     -3.20621746	     -3.43295656	     13.22968739	      0.98204611	      0.91130059	      0.54225319	     13.80261560	      4.23113514	    -13.60398937	     29.76759618	     29.76759618	     20.68134890	    -17.28444476	      5.11946782	     34.62739648	     -8.02259212	      7.78279409	     48.18922359	     48.18922359	     11.55562740	    -19.22888264	     14.94082494	    -11.91903521	      2.68181531	      3.52464690	     50.82380013	    -21.74968518	     -6.82954722	     48.52327397	     45.52456892	      0.00000000	      0.00000000	    -16.48622358	     -8.68053566	     15.84503370	     29.41957345	     43.12640028	      0.00000000	      0.00000000
     32.24514286	     -3.53298638	     -3.06275646	     14.11605864	      0.98077851	      0.91387476	      0.54025892	     12.99500665	      3.70079713	    -14.42920083	     28.25028840	     28.25028840	     20.03066536	    -16.93550806	      4.29353719	     34.10698268	     -6.77692105	      7.96459781	     42.26230305	     42.26230305	      9.23679457	    -18.81649700	     10.66010600	    -11.61380328	      2.34748559	      3.74360700	     53.40683711	    -22.25630888	     -6.13425120	     50.49580376	     45.45653245	      0.00000000	      0.00000000	    -18.12821751	     -8.78324333	     18.50267446	     30.20536774	     42.90543052	      0.00000000	      0.00000000
     32.26807143	     -3.86027783	     -2.63266742	     14.83285461	      0.97947135	      0.91635120	      0.53814455	     12.26648501	      3.13601064	    -15.06190682	     26.95055566	     26.95055566	     19.74616166	    -16.54846172	      4.50170482	     33.41327811	     -5.54380881	      8.24959393	     36.56638107	     36.56638107	      8.55502298	    -17.46806166	     11.02457881	    -11.39850718	      1.91996843	      3.95066297	     56.13967474	    -22.31365095	     -6.05628688	     51.94552648	     45.41871148	      0.00000000	      0.00000000	    -19.28092556	     -8.37931331	     18.89350046	     30.08270367	     42.85688010	      0.00000000	      0.00000000
